<?xml version="1.0" encoding="utf-8"?>
<!-- Generator: Adobe Illustrator 17.1.0, SVG Export Plug-In . SVG Version: 6.00 Build 0)  -->
<!DOCTYPE svg PUBLIC "-//W3C//DTD SVG 1.1//EN" "http://www.w3.org/Graphics/SVG/1.1/DTD/svg11.dtd">

<svg version="1.1"
xmlns="http://www.w3.org/2000/svg"
	 viewBox="0 0 100 100" >
<g>
	<g>


		<path  fill="#CE6499" d="M91.2,55.5c-4.6-1.6-10.9-1-14.7,1.2c-1.2-2.1-2.5-4.9-2.1-8.2
			c0.2-2,1-3.6,1.2-5.4c-1-1.5-4.6-0.8-5.9-0.2c-0.8,3-1.6,5.8-3,8.2c-1.3,2.5-2.6,4.9-4,7.3c-1.5-2.5-2-6.1-1.2-9.4
			c0.2-0.8,0.8-2.3,0.7-2.8c-0.5-1.6-5.3-0.8-5.9-0.2c-1.2,4.6-3,8.6-4.6,12.7c-1.3,3-2.6,6.1-4,9.1c-0.5,1-0.7,2.1-1.5,2.6
			c0-0.8-0.2-1.3,0-2.3c0.2-2.6,1.3-6.3,2-8.9c0.3-1,0.8-2.3,0.5-3c-0.3-1.2-2.6-1.3-3.3-0.5c0.7-3.5,0-7.1-3.6-6.6
			c-2.8,0.3-4.9,2.6-6.6,4.3c-0.7,0.7-1,1.5-1.6,2c-0.7,0.7-1.6,1-2.3,1.3c-2.5,1.5-4.9,2.8-7.3,4.3c-2.8-3-5.6-5.1-8.7-7.8
			c-2.6-2.3-6.3-5.3-6.8-10.1c-0.2-3.3,0.8-5.9,2.1-7.9C14.3,29.1,20.9,25,27,21.5c4.1-2.3,8.9-4.3,14.5-5.3
			c5.9-1,13.4-0.5,15.5,3.5c0.5,1,0.8,2.5,0.7,4.3c-0.3,3.8-2.6,6.9-4.8,9.2c-2.3,2.5-4.9,4.3-8.1,5.8c-4.8,2.3-14,4.6-19,0.8
			c-0.7-0.5-1-1.5-2-1.5c-0.5,1.3,0.3,2.3,1,3.1c4.9,6.1,17.2,4,23.8,1c3.8-1.6,7.3-4.5,9.9-7.8c2.5-3.3,4.9-7.8,4.6-13.5
			c-1-8.4-8.9-11.1-17-11.5h-1.5C33.6,10.5,25,14.6,17.2,19.7C13.5,22.2,10,25.2,7,28.5s-5.8,7.8-6.3,12.9V42
			c1,5.8,4.5,9.4,7.9,12.5c2.6,2.3,5.8,4.5,8.6,6.6c1,0.7,2,1.3,2.6,2.3c-3.1,1.6-6.6,3.8-9.7,6.4C7.2,72.4,4.4,75,4,79.9
			c-0.3,4.9,2.1,7.9,6.6,7.9h1.2c5.6-0.7,9.7-3.5,12.2-7.6c2.3-3.8,3.8-11.2,1.5-16.3c1.8-1.2,3.6-2.5,5.4-3.3
			c-0.8,2.8-1.6,6.3-1.2,9.9c0.3,2.8,1.5,6.6,3.5,7.6c1.2,0.5,3,0.2,3.8-0.5c2.1-2,3-6.3,4.5-8.7c-0.3,3-0.5,7.3,1.6,8.1
			c1.2,0.5,2.1-0.2,3-0.8c1.2-1.2,2.1-3.1,3.1-4.9c2.6-5.1,5.4-11.7,7.4-16.7c0.5,3.6,1.6,6.3,3,8.9c-1.6,2.8-3.8,5.1-5.8,7.6
			c-0.5,0.7-1.6,2-1.3,3.1c0.3,1.8,3.8,1.3,5.4,0.8c1.8-0.5,3.5-1.5,4.6-2.5c2.8-2.3,3.6-6.8,1.5-10.9c2.3-3.3,4.1-6.9,5.9-10.6
			c0.5,3.1,1.5,5.9,2.6,8.2c-1.2,1.2-2.5,2.5-3.6,4.3c-1.2,1.6-3,5.1-1.6,7.3c1,1.8,3.3,0.8,4.8,0.2c2.6-1.2,5.9-3.5,6.3-6.8
			c0.3-2.1-0.3-3.3-0.8-5.1c3.6-1.5,8.4-1.6,12.4-0.5c3.6,1.2,7.1,3.6,7.1,7.8c0,2.5-1.3,3.6-2.6,4.6c-0.3,0.2-1,0.5-0.8,1.2
			c1.6,0.3,3-0.8,3.8-1.8c1-1.2,1.6-2.5,1.8-4.3v-0.5C98.6,60.3,95.5,57.2,91.2,55.5L91.2,55.5z M13.8,82.4c-2,0.5-4,0-4.1-2
			c-0.2-2,0.8-3.8,1.5-5.1c2.5-4,7.3-6.8,10.7-9.1h0.3C24,74,19.4,80.9,13.8,82.4L13.8,82.4z M41.3,59.2c-1,3.1-2,6.3-3.3,9.4
			c-0.3,0.7-1.3,4-2.3,3.8c-1,0-1.3-2.8-1.2-4.5c0-2,0.3-3.6,0.7-5.1c0.7-2.5,2.3-5.9,3.8-7.4c0.7-0.7,2.1-2.1,3.5-1.3
			C42.5,55.9,41.8,57.5,41.3,59.2L41.3,59.2z M56,72.9c0-0.5,0.7-1,1-1.3c1.3-1.5,2.5-3.1,3.6-4.8c0,0,0.2,0,0.2,0.2
			C60.5,69.9,58.2,72,56,72.9L56,72.9z M69.9,69.2c0.2-3.1,2-5.4,3.6-7.3C74.8,65.6,72.5,68.9,69.9,69.2L69.9,69.2z"/>
	</g>
</g>
</svg>
